<?xml version="1.0" encoding="UTF-8"?>
<svg xmlns="http://www.w3.org/2000/svg" id="Layer_1" data-name="Layer 1" viewBox="0 0 24 24">
  <path d="M9,12c3.309,0,6-2.691,6-6S12.309,0,9,0,3,2.691,3,6s2.691,6,6,6Zm0-11c2.757,0,5,2.243,5,5s-2.243,5-5,5-5-2.243-5-5S6.243,1,9,1Zm12.5,10h-6c-1.379,0-2.5,1.122-2.5,2.5v8c0,1.378,1.121,2.5,2.5,2.5h6c1.379,0,2.5-1.122,2.5-2.5V13.5c0-1.378-1.121-2.5-2.5-2.5Zm1.5,10.5c0,.827-.673,1.5-1.5,1.5h-6c-.827,0-1.5-.673-1.5-1.5V13.5c0-.827,.673-1.5,1.5-1.5h6c.827,0,1.5,.673,1.5,1.5v8Zm-2-7.003c0,.276-.224,.5-.5,.5h-4c-.276,0-.5-.224-.5-.5s.224-.5,.5-.5h4c.276,0,.5,.224,.5,.5Zm0,3.003c0,.276-.224,.5-.5,.5h-4c-.276,0-.5-.224-.5-.5s.224-.5,.5-.5h4c.276,0,.5,.224,.5,.5Zm0,2.997c0,.276-.224,.5-.5,.5h-4c-.276,0-.5-.224-.5-.5s.224-.5,.5-.5h4c.276,0,.5,.224,.5,.5Zm-10.008-5.778c-.049,.272-.311,.453-.579,.405-.465-.082-.94-.124-1.413-.124-4.411,0-8,3.589-8,8v.5c0,.276-.224,.5-.5,.5s-.5-.224-.5-.5v-.5c0-4.962,4.037-9,9-9,.531,0,1.065,.047,1.587,.14,.272,.048,.454,.308,.405,.58Z"/>
</svg>
